<?xml version="1.0" encoding="UTF-8"?>
<svg width="44px" height="54px" viewBox="0 0 44 54" version="1.1" xmlns="http://www.w3.org/2000/svg" xmlns:xlink="http://www.w3.org/1999/xlink">
    <!-- Generator: Sketch 47.1 (45422) - http://www.bohemiancoding.com/sketch -->
    <title>Group 13</title>
    <desc>Created with Sketch.</desc>
    <defs></defs>
    <g id="Page-1" stroke="none" stroke-width="1" fill="none" fill-rule="evenodd">
        <g id="Artboard-2-Copy-5" transform="translate(-240.000000, -221.000000)" fill="#F8F8FF">
            <g id="Group-13" transform="translate(233.000000, 220.000000)">
                <g id="Group-13-Copy-2" transform="translate(29.000000, 24.000000) scale(-1, 1) translate(-29.000000, -24.000000) translate(5.000000, 0.000000)">
                    <path d="M16,7.71580492 C20.6940162,6.17847863 25.4610058,6.39091351 29.516129,7.71580492 C29.516129,6.67606457 29.516129,5.2622109 29.516129,3.47424392 C25.0107527,0.175252028 20.5053763,0.175252028 16,3.47424392 C16,4.18117075 16,6.69199556 16,7.71580492 Z" id="Path-36"></path>
                    <path d="M17.9694912,29.9976708 C19.0405958,29.9976708 27,26.3050267 27,25.1021795 C27,23.8993322 19.2228061,20 17.9694912,20 C16.7161764,20 17.0367055,22.3111489 17.0367055,25.1021795 C17.0367055,27.89321 16.8983866,29.9976708 17.9694912,29.9976708 Z" id="Oval" transform="translate(22.000000, 24.998835) scale(-1, 1) translate(-22.000000, -24.998835) "></path>
                    <path d="M18.2140866,33.2950236 C15.4102901,31.5692322 13.7666723,29.2672738 13.2832332,26.3891484 C12.8349183,23.7201323 12.7756386,17.97337 19.647415,15.2866809 C26.5191914,12.5999917 31.0626003,16.7278124 32.4763806,19.0261488 C34.2334346,21.8825341 34.6203885,24.9734254 33.6372424,28.2988229 L33.6372546,28.2988265 C33.3240929,29.3580659 33.9289083,30.4706167 34.9881477,30.7837784 C35.2124155,30.8500827 35.4465745,30.8765391 35.6799826,30.8619453 L36.5218208,30.8093093 L36.5218208,30.8093093 C39.0705224,30.6499518 41.0974946,28.6099776 41.2405527,26.0603092 C41.2516606,25.8621012 41.2572211,25.6753528 41.2572211,25.5000633 C41.2572211,15.8928149 33.4690075,8.10460132 23.8617592,8.10460132 C14.2545108,8.10460132 6.67687533,15.8949347 6.46629718,25.5000633 C6.34978588,30.8145085 8.40202,35.2271733 12.6229995,38.7380576 L12.6229945,38.7380636 C13.8644387,39.7706598 15.700491,39.635377 16.7771841,38.4319774 L18.6562264,36.3318073 L18.6562286,36.3318093 C19.3927384,35.5086261 19.3224758,34.244245 18.4992926,33.5077352 C18.410732,33.4284991 18.3152858,33.3573137 18.2140866,33.2950236 Z" id="Oval-2" transform="translate(23.859412, 23.768138) rotate(45.000000) translate(-23.859412, -23.768138) "></path>
                </g>
                <g id="Group-3" transform="translate(29.351597, 39.338457) rotate(30.000000) translate(-29.351597, -39.338457) translate(5.851597, 21.338457)">
                    <path d="M19.9233602,18.0472567 L24.5325326,19.1109119 L24.5325326,19.1109119 C25.070674,19.2350983 25.4062508,19.7720212 25.2820643,20.3101626 C25.2352843,20.512876 25.1264455,20.6959526 24.9707083,20.8338912 L10.0238135,34.0725695 L10.0238135,34.0725695 C9.61037969,34.4387538 8.97837436,34.4004504 8.6121901,33.9870166 C8.52882284,33.8928922 8.46395419,33.7838901 8.42098486,33.6657244 L1.55248098,14.7773387 L1.55248098,14.7773387 C1.3637415,14.2583052 1.63149777,13.6845417 2.15053134,13.4958022 C2.33209173,13.4297803 2.52888951,13.4177635 2.71713391,13.4612045 L7.42336024,14.5472567 C13.7099153,3.94385082 22.7299428,-0.363554357 34.4834428,1.62504117 C39.8716193,3.1666986 43.5726508,7.16973367 45.5865371,13.6341464 L45.5866461,13.6341124 C45.6523724,13.8450884 45.5346242,14.0693999 45.3236482,14.1351262 C45.1756872,14.1812211 45.0144141,14.1377274 44.909694,14.0234868 C42.0242311,10.8756981 38.3621199,9.05028801 33.9233602,8.5472567 C28.8554286,7.97292321 24.1887619,11.1395899 19.9233602,18.0472567 Z" id="Path-26-Copy-2" transform="translate(23.548432, 17.738980) scale(-1, -1) rotate(3.000000) translate(-23.548432, -17.738980) "></path>
                </g>
            </g>
        </g>
    </g>
</svg>