<?xml version="1.0" encoding="UTF-8"?>
<svg width="27px" height="55px" viewBox="0 0 27 55" version="1.1" xmlns="http://www.w3.org/2000/svg" xmlns:xlink="http://www.w3.org/1999/xlink">
    <!-- Generator: Sketch 47.1 (45422) - http://www.bohemiancoding.com/sketch -->
    <title>Group 14</title>
    <desc>Created with Sketch.</desc>
    <defs></defs>
    <g id="Page-1" stroke="none" stroke-width="1" fill="none" fill-rule="evenodd">
        <g id="Artboard-2-Copy-5" transform="translate(-520.000000, -85.000000)" fill="#F8F8FF">
            <g id="Group-14" transform="translate(520.000000, 85.000000)">
                <path d="M3,12 L7.94117647,12 L7.94117647,14.372549 C7.94117647,14.9248338 8.38889172,15.372549 8.94117647,15.372549 L18.0588235,15.372549 C18.6111083,15.372549 19.0588235,14.9248338 19.0588235,14.372549 L19.0588235,12 L24,12 L24,12 C25.6568542,12 27,13.3431458 27,15 L27,52 C27,53.6568542 25.6568542,55 24,55 L3,55 C1.34314575,55 2.02906125e-16,53.6568542 0,52 L0,15 L-4.4408921e-16,15 C-6.46995335e-16,13.3431458 1.34314575,12 3,12 L3,12 Z M14.9647059,27.548569 L19.7164621,28.9535301 C19.8085152,28.9807476 19.9040075,28.9945691 20,28.9945691 C20.5522847,28.9945691 21,28.5468538 21,27.9945691 L21,27.1902511 C21,26.7639013 20.729685,26.3844384 20.3267349,26.2451351 L13.9912792,24.0549126 C13.9041595,24.0247946 13.8132939,24.0068668 13.7212635,24.0016385 C13.1698678,23.9703134 12.6974793,24.3919138 12.6661541,24.9433095 L12.6661541,24.9433095 L11.8564457,39.1960697 C11.8536855,39.244657 11.8473821,39.2929781 11.8375858,39.3406476 C11.7264125,39.8816271 11.1977382,40.2300538 10.6567587,40.1188805 L10.6567587,40.1188808 C9.5165222,39.8845579 8.62309283,39.8582108 7.97647059,40.0398395 C6.70588235,40.3967329 4.8,42.1812001 7.02352941,44.6794542 C7.02352941,44.6794542 7.02352941,44.6794542 7.02352941,44.6794542 C7.69314284,45.4318007 8.62816879,45.895498 9.63234376,45.9732153 C11.7769646,46.1391965 13.6500776,44.5351922 13.8160588,42.3905714 L13.8160212,42.3905685 L14.9647059,27.548569 Z" id="Combined-Shape"></path>
                <polygon id="Path-23" points="12.4031085 14 16 14 9.45454545 0 6.17003415 0"></polygon>
                <polygon id="Path-23-Copy-2" transform="translate(18.590128, 5.402908) scale(-1, 1) translate(-18.590128, -5.402908) " points="22.5398476 7.63881578 17.7664664 0 14.6404082 0 21.035502 10.8058151"></polygon>
            </g>
        </g>
    </g>
</svg>