<?xml version="1.0" encoding="UTF-8"?>
<svg width="36px" height="51px" viewBox="0 0 36 51" version="1.1" xmlns="http://www.w3.org/2000/svg" xmlns:xlink="http://www.w3.org/1999/xlink">
    <!-- Generator: Sketch 47.1 (45422) - http://www.bohemiancoding.com/sketch -->
    <title>Group 8</title>
    <desc>Created with Sketch.</desc>
    <defs></defs>
    <g id="Page-1" stroke="none" stroke-width="1" fill="none" fill-rule="evenodd">
        <g id="Artboard-2-Copy-5" transform="translate(-514.000000, -223.000000)">
            <rect id="Rectangle-22" fill="#381345" x="0" y="0" width="915" height="774"></rect>
            <rect id="Rectangle-17-Copy-7" stroke="#FFFFFF" stroke-width="4" x="482" y="200" width="96" height="96"></rect>
            <g id="Group-8" transform="translate(514.000000, 223.000000)" fill="#F8F8FF">
                <path d="M6,1 L8.67660343,1 C8.67660343,15.1042106 8.67660343,22.8773199 8.67660343,24.3193277 C8.67660343,25.1596639 11.4344979,16.5462185 12.0189702,16.5462185 C12.4726713,16.5462185 15.3613369,24.5294118 15.3613369,24.3193277 C15.3613369,22.5297956 15.3613369,14.7566863 15.3613369,1 L22.8952123,1 L25.5555556,1 L24.9322493,51 L23.0623306,51 L6,51 L6,51 C2.6862915,51 2.97157001e-14,48.3137085 2.93098879e-14,45 L2.84217094e-14,7 L3.46389584e-14,7 C3.42331461e-14,3.6862915 2.6862915,1 6,1 Z" id="Rectangle-20"></path>
                <path d="M28.8888889,50.8884477 L28.8888889,0.888888889 L29.5555556,0.888888889 L29.5555556,0.888888889 C32.8692641,0.888888889 35.5555556,3.57518039 35.5555556,6.88888889 L35.5555556,44.8888889 L35.5559526,44.8888889 C35.5559526,48.2025974 32.8696611,50.8888889 29.5559526,50.8888889 C29.5558202,50.8888889 29.5556879,50.8888889 29.5555555,50.8888889 L28.8888889,50.8884477 Z" id="Path-31"></path>
            </g>
        </g>
    </g>
</svg>