<?xml version="1.0" encoding="UTF-8"?>
<svg width="37px" height="50px" viewBox="0 0 37 50" version="1.1" xmlns="http://www.w3.org/2000/svg" xmlns:xlink="http://www.w3.org/1999/xlink">
    <!-- Generator: Sketch 47.1 (45422) - http://www.bohemiancoding.com/sketch -->
    <title>Combined Shape</title>
    <desc>Created with Sketch.</desc>
    <defs></defs>
    <g id="Page-1" stroke="none" stroke-width="1" fill="none" fill-rule="evenodd">
        <g id="Artboard-2-Copy-5" transform="translate(-245.000000, -90.000000)" fill="#F8F8FF">
            <path d="M278.352113,139.5 L248.647887,140 C246.457231,139.719621 245.241269,138.719621 245,137 C245,126.5 245,123 245,114 C245.694836,111.666667 247.779343,110.666667 251.253521,111 C251.253521,106 251.253521,101.833333 251.253521,98.5 C251.774648,94 254.901408,90 263.239437,90 C271.577465,90 274.704225,93.5 276.267606,98.5 C276.267606,104 276.267606,105.5 276.267606,111 C279.394366,110.666667 281.305164,111.666667 282,114 C282,125.333333 282,132.333333 282,135 C282,137.666667 280.784038,139.166667 278.352113,139.5 Z M264.5,132.090362 C265.260986,132.090362 267.154419,133.461923 267.5,132.090362 C267.859471,130.663673 266.162006,126.946755 266.5,125.288118 C266.780353,123.912342 268,123.830495 268,121.886997 C268,119.746415 266.209139,118 264,118 C261.790861,118 260,119.743711 260,121.886997 C260,123.830495 261.591453,123.531846 262,125.288118 C262.257249,126.393987 260.848655,130.93654 261,132.090362 C261.268461,134.137047 263.601636,132.090362 264.5,132.090362 Z M257,111 L270,111 C270,107.129032 270,103.580645 270,100.354839 C268.540927,96.9877482 266.75,96 263.5,96 C260.25,96 258.419811,97.0783508 257,100.354839 C257,103.258065 257,106.806452 257,111 Z" id="Combined-Shape"></path>
        </g>
    </g>
</svg>