<?xml version="1.0" encoding="utf-8"?>
<!-- Generator: Adobe Illustrator 22.0.1, SVG Export Plug-In . SVG Version: 6.00 Build 0)  -->
<svg version="1.1" id="Layer_1" xmlns="http://www.w3.org/2000/svg" xmlns:xlink="http://www.w3.org/1999/xlink" x="0px" y="0px"
	 width="37px" height="50px" viewBox="0 0 37 50" style="enable-background:new 0 0 37 50;" xml:space="preserve">
<style type="text/css">
	.st0{fill:#FFFFFF;}
</style>
<title>Combined Shape</title>
<desc>Created with Sketch.</desc>
<g id="Page-1">
	<g id="Artboard-2-Copy-3" transform="translate(-245.000000, -90.000000)">
		<path id="Combined-Shape" class="st0" d="M278.4,139.5l-29.7,0.5c-2.2-0.3-3.4-1.3-3.6-3c0-10.5,0-14,0-23c0.7-2.3,2.8-3.3,6.3-3
			c0-5,0-9.2,0-12.5c0.5-4.5,3.6-8.5,12-8.5c8.3,0,11.5,3.5,13,8.5c0,5.5,0,7,0,12.5c3.1-0.3,5,0.7,5.7,3c0,11.3,0,18.3,0,21
			S280.8,139.2,278.4,139.5z M264.5,132.1c0.8,0,2.7,1.4,3,0c0.4-1.4-1.3-5.1-1-6.8c0.3-1.4,1.5-1.5,1.5-3.4c0-2.1-1.8-3.9-4-3.9
			s-4,1.7-4,3.9c0,1.9,1.6,1.6,2,3.4c0.3,1.1-1.2,5.6-1,6.8C261.3,134.1,263.6,132.1,264.5,132.1z M257,111h13c0-3.9,0-7.4,0-10.6
			c-1.5-3.4-3.2-4.4-6.5-4.4s-5.1,1.1-6.5,4.4C257,103.3,257,106.8,257,111z"/>
	</g>
</g>
</svg>
