<?xml version="1.0" encoding="UTF-8"?>
<svg width="48px" height="52px" viewBox="0 0 48 52" version="1.1" xmlns="http://www.w3.org/2000/svg" xmlns:xlink="http://www.w3.org/1999/xlink">
    <!-- Generator: Sketch 47.1 (45422) - http://www.bohemiancoding.com/sketch -->
    <title>Group</title>
    <desc>Created with Sketch.</desc>
    <defs></defs>
    <g id="Page-1" stroke="none" stroke-width="1" fill="none" fill-rule="evenodd">
        <g id="iPhone-8-Copy-13" transform="translate(-162.000000, -330.000000)" fill="#381345">
            <g id="Group-7-Copy-3" transform="translate(161.000000, 330.000000)">
                <g id="Group">
                    <rect id="Rectangle-19" x="15.9642857" y="44.0784314" width="16.9642857" height="7.84313725" rx="1"></rect>
                    <path d="M35.7693296,14.6674029 C40.4182273,14.6674029 48.4467043,13.3676341 48.9805974,21.2292185 C48.9805974,28.0922612 48.9805974,34.9553038 48.9805974,41.8183464 C48.9805974,42.3706311 48.5328822,42.8183464 47.9805974,42.8183464 L2,42.8183464 L2,42.8183464 C1.44771525,42.8183464 1,42.3706311 1,41.8183464 C1,36.1421539 1,30.4659615 1,24.789769 C1,21.3788968 0.619769124,14.2092153 10.4160862,14.3869738 C11.749533,14.4259171 12.9942178,14.4608042 14.1501405,14.4916354 L14.1501398,14.4916644 C16.7402167,14.5607478 18.7838857,16.7164231 18.7148024,19.3065 C18.7044892,19.6931606 18.6463973,20.0770617 18.5418491,20.4494626 C18.5418491,20.4494626 18.5418491,20.4494626 18.5418491,20.4494626 C17.2643974,24.9997504 20.4937622,29.671693 24.4834214,29.671693 C29.4201002,29.671693 30.9806975,26.4501616 31.9593553,22.8829669 C32.938013,19.3157722 31.120432,14.6674029 35.7693296,14.6674029 Z M4,39 L10.0388743,39 C10.0388743,31.0563077 10.0388743,26.5287366 10.0388743,25.4172868 C10.0388743,23.750112 10.0757072,18.9674627 6.75364958,18.9674627 C4.86537083,18.9674627 4,20.8405612 4,24.6171857 C4,28.5070928 4,33.3013642 4,39 Z" id="Combined-Shape"></path>
                    <path d="M31.3552941,4.63461762 L29.9002935,23.4344836 L29.9003412,23.4344873 C29.6900983,26.151007 27.3174885,28.1827458 24.6009688,27.9725029 C23.3290138,27.874061 22.1446476,27.2867111 21.2964706,26.3337389 C21.2964706,26.3337389 21.2964706,26.3337389 21.2964706,26.3337389 C18.48,23.1692837 20.8941176,20.9089586 22.5035294,20.4568935 C23.3758908,20.2118574 24.6028915,20.2656634 26.1845316,20.6183117 L26.1845399,20.6182743 C26.7235677,20.7384579 27.2579641,20.3989176 27.3781478,19.8598898 C27.3899507,19.8069533 27.3974273,19.7531442 27.4005035,19.6989951 L28.4638012,0.982470636 L28.4638012,0.982470636 C28.4951263,0.43107497 28.9675149,0.0094745082 29.5189106,0.0407996479 C29.610941,0.046027955 29.7018066,0.0639557507 29.7889263,0.0940737849 L38.3267349,3.04566891 L38.3267349,3.04566891 C38.729685,3.18497227 39,3.56443509 39,3.99078494 L39,5.55647556 L39,5.55647556 C39,6.10876031 38.5522847,6.55647556 38,6.55647556 C37.9040075,6.55647556 37.8085152,6.5426541 37.7164621,6.5154366 L31.3552941,4.63461762 Z" id="Path-28-Copy"></path>
                </g>
            </g>
        </g>
    </g>
</svg>