<svg id="Layer_1" data-name="Layer 1" xmlns="http://www.w3.org/2000/svg" xmlns:xlink="http://www.w3.org/1999/xlink" width="111.12" height="98.92" viewBox="0 0 111.12 98.92">
  <defs>
    <style>
      .cls-1, .cls-2 {
        fill: none;
      }

      .cls-1 {
        clip-rule: evenodd;
      }

      .cls-3 {
        clip-path: url(#clip-path);
      }

      .cls-4 {
        clip-path: url(#clip-path-2);
      }

      .cls-5 {
        fill: #;
      }

      .cls-6 {
        clip-path: url(#clip-path-3);
      }
    </style>
    <clipPath id="clip-path" transform="translate(-11.24 -9.51)">
      <path class="cls-1" d="M56.29,21.67a20,20,0,0,1,12.37-1.91,19.64,19.64,0,0,1,14.14,9,17.5,17.5,0,0,1,2.73,10.89,31.93,31.93,0,0,1-5,14.93A57.72,57.72,0,0,1,66,70.1a.58.58,0,0,1-.85,0A60.7,60.7,0,0,1,53.31,58.42a40.6,40.6,0,0,1-5.81-10.2A30.25,30.25,0,0,1,45.57,36.8C45.82,30.87,49.29,25.25,56.29,21.67Zm9.05,6.11c-5.94-.07-10.87,4.45-11,10s4.76,10.24,10.9,10.31c5.89.06,10.89-4.48,11-10,.07-5.75-4.71-10.31-10.9-10.38"/>
    </clipPath>
    <clipPath id="clip-path-2" transform="translate(-11.24 -9.51)">
      <rect class="cls-2" x="-193.66" y="-938.49" width="1786" height="1548"/>
    </clipPath>
    <clipPath id="clip-path-3" transform="translate(-11.24 -9.51)">
      <path class="cls-1" d="M45.37,51.2v4.4a2,2,0,0,1-2,2h-.53a2,2,0,0,0-2,1.64l-4.41,24a2,2,0,0,0,2,2.36H95.29a2,2,0,0,0,2-2.37l-4.57-24a2,2,0,0,0-2-1.63h-.64a2,2,0,0,1-2-1.67l-.74-4.41A2,2,0,0,1,89,49.23l.33,0h11.29a4,4,0,0,1,3.93,3.26l7.72,41.23a4,4,0,0,1-3.93,4.74H25.24a4,4,0,0,1-3.94-4.69L28.5,52.51a4,4,0,0,1,3.94-3.31H43.37A2,2,0,0,1,45.37,51.2Z"/>
    </clipPath>
  </defs>
  <title>icon_venue</title>
  <g class="cls-3">
    <g class="cls-4">
      <rect class="cls-5" x="24.33" width="60" height="70.77"/>
    </g>
  </g>
  <g class="cls-6">
    <g class="cls-4">
      <rect class="cls-5" y="29.69" width="111.12" height="69.23"/>
    </g>
  </g>
</svg>
