<?xml version="1.0" encoding="UTF-8"?>
<svg width="42px" height="51px" viewBox="0 0 42 51" version="1.1" xmlns="http://www.w3.org/2000/svg" xmlns:xlink="http://www.w3.org/1999/xlink">
    <!-- Generator: Sketch 47.1 (45422) - http://www.bohemiancoding.com/sketch -->
    <title>Group Copy 4</title>
    <desc>Created with Sketch.</desc>
    <defs></defs>
    <g id="Page-1" stroke="none" stroke-width="1" fill="none" fill-rule="evenodd">
        <g id="Artboard-2-Copy-5" transform="translate(-646.000000, -93.000000)" fill="#F8F8FF">
            <g id="Group-Copy-4" transform="translate(646.000000, 93.000000)">
                <path d="M0.719339711,44.6308825 L0.719339711,44.6308825 C0.29300326,44.5062161 4.54282277e-15,44.1152651 1.33226763e-15,43.6710754 L-6.66133815e-16,43.6710754 L6.66133815e-16,5.11742823 C6.07968024e-16,4.6424685 0.334089569,4.23303576 0.799394347,4.13775615 L0.799394347,4.13775615 L19.7993943,0.247161025 C19.8654072,0.233643686 19.9326174,0.226833099 20,0.226833099 C20.5522847,0.226833099 21,0.674548349 21,1.2268331 L21,1.2268331 L21,46.6768106 L21,49.2269262 C21,49.3219137 20.9864664,49.4164168 20.9598072,49.5075865 C20.8048028,50.0376734 20.2494266,50.3417378 19.7193397,50.1867334 L0.719339711,44.6308825 Z M15.5,28 C16.3284271,28 17,27.3284271 17,26.5 C17,25.6715729 16.3284271,25 15.5,25 C14.6715729,25 14,25.6715729 14,26.5 C14,27.3284271 14.6715729,28 15.5,28 Z" id="Combined-Shape"></path>
                <path d="M32.6008241,11.7800584 L31.0335334,31.5709457 L31.0335313,31.5709455 C30.8957953,33.3101998 29.8614171,34.8518804 28.304251,35.6387794 C27.0486279,36.2732965 26.2713892,36.6211898 25.9725348,36.6824592 C25.231238,36.8344357 24.240393,36.7584624 23,36.4545391 L23,28.9156618 C24.0402064,28.784756 24.9806489,28.784756 25.8213275,28.9156618 C25.9827198,28.940793 26.3714665,29.0230656 26.9875674,29.1624796 L26.9875645,29.1624926 C27.5262375,29.2843859 28.0617323,28.9465193 28.1836256,28.4078463 C28.1956483,28.3547155 28.2033095,28.3006913 28.2065329,28.2463127 L29.398323,8.14085478 L29.398323,8.14085478 C29.4310034,7.58953778 29.9044268,7.16909973 30.4557438,7.20178012 C30.5445896,7.20704663 30.6323348,7.22415048 30.7166541,7.25263846 L36.5408073,9.22037651 L40.4030503,10.525267 L40.4030503,10.525267 C40.8094178,10.6625617 41.082967,11.0437224 41.082967,11.4726564 L41.082967,12.9011697 L41.082967,12.9011697 C41.082967,13.4534545 40.6352517,13.9011697 40.082967,13.9011697 C39.9890469,13.9011697 39.8955951,13.8879386 39.8053663,13.8618663 L36.4726536,12.8988533 L32.6008241,11.7800584 Z" id="Path-28"></path>
                <path d="M23,43 L40.2717528,43 C40.6739526,43 41,43.4477153 41,44 C41,44.5522847 40.6739526,45 40.2717528,45 L23,45 L23,43 Z" id="Path-23-Copy"></path>
            </g>
        </g>
    </g>
</svg>