<?xml version="1.0" encoding="UTF-8"?>
<svg width="47px" height="50px" viewBox="0 0 47 50" version="1.1" xmlns="http://www.w3.org/2000/svg" xmlns:xlink="http://www.w3.org/1999/xlink">
    <!-- Generator: Sketch 47.1 (45422) - http://www.bohemiancoding.com/sketch -->
    <title>Combined Shape Copy 2</title>
    <desc>Created with Sketch.</desc>
    <defs></defs>
    <g id="Page-1" stroke="none" stroke-width="1" fill="none" fill-rule="evenodd">
        <g id="iPhone-8-Copy-13" transform="translate(-164.000000, -473.000000)" fill="#381345">
            <path d="M187.517456,523 C185.831171,523 184.184271,522.829695 182.592695,522.505185 C180.087863,521.99447 184.661361,519.153846 178.949172,514.270499 C173.236982,509.387151 170.642807,516.529573 168.723732,514.270499 C167.649546,513.006001 166.698305,511.63185 165.88873,510.166953 C165.172372,508.87073 164.566934,507.503455 164.085385,506.078226 C163.229184,503.544152 169.094287,505.692308 169.094287,498 C169.094287,490.307692 163.276408,492.18657 164.215665,489.546075 C164.785168,487.945057 165.51183,486.419719 166.376862,484.98904 C167.170919,483.675747 168.081572,482.442215 169.094287,481.303125 C170.802525,479.381719 173.236982,485.279327 178.949172,481.303125 C184.661361,477.326923 179.417322,474.233553 181.852953,473.657642 C183.672102,473.2275 185.568474,473 187.517456,473 C189.326974,473 191.091141,473.196107 192.79026,473.568425 C195.248216,474.107022 191.801598,477.7952 196.561756,481.39212 C201.321914,484.98904 204.213041,479.340882 206.01937,481.39212 C206.852865,482.338625 207.616236,483.349518 208.301251,484.416486 C209.373559,486.086694 210.253863,487.894308 210.910588,489.807437 C211.791634,492.374048 205.877837,490.307692 205.606057,497.519231 C205.334276,504.730769 211.786776,503.65386 210.897175,506.23153 C210.35137,507.813035 209.652695,509.322178 208.819029,510.740903 C207.971798,512.182714 206.985145,513.53114 205.877837,514.767231 C204.250513,516.583817 202.273946,510.740903 196.085741,514.346154 C190.849567,517.711538 194.871245,522.082407 191.828744,522.622117 C190.428649,522.870479 189.203741,523 187.517456,523 Z M187.5,511 C194.403559,511 200,505.403559 200,498.5 C200,491.596441 194.403559,486 187.5,486 C180.596441,486 175,491.596441 175,498.5 C175,505.403559 180.596441,511 187.5,511 Z" id="Combined-Shape-Copy-2"></path>
        </g>
    </g>
</svg>