<?xml version="1.0" encoding="UTF-8"?>
<svg width="40px" height="40px" viewBox="0 0 45.7 45.7" version="1.1" xmlns="http://www.w3.org/2000/svg" xmlns:xlink="http://www.w3.org/1999/xlink">
    <!-- Generator: Sketch 48.1 (47250) - http://www.bohemiancoding.com/sketch -->
    <title>Group 9</title>
    <desc>Created with Sketch.</desc>
    <defs></defs>
    <g id="create-entry" stroke="none" stroke-width="1" fill="none" fill-rule="evenodd" transform="translate(-32.000000, -303.000000)">
        <g id="Group-9" transform="translate(32.000000, 303.000000)">
            <path d="M5,0 L20.5,0 L27.6941011,0 C29.5700525,-3.44606687e-16 31.2881632,1.05007449 32.1437673,2.71954605 L38.6625347,15.4390921 C40.1300914,18.3026173 40.1300914,21.6973827 38.6625347,24.5609079 L32.1437673,37.280454 C31.2881632,38.9499255 29.5700525,40 27.6941011,40 L20.5,40 L5,40 C2.23857625,40 3.38176876e-16,37.7614237 0,35 L0,5 C-3.38176876e-16,2.23857625 2.23857625,5.07265313e-16 5,0 Z" id="Rectangle-6-Copy-4" fill="#381345"></path>
            <g id="Group-13-Copy-2" transform="translate(16.500000, 23.500000) scale(-1, 1) translate(-16.500000, -23.500000) translate(0.000000, 7.000000)" fill="#F8F8FF" fill-rule="nonzero">
                <path d="M11,5.30461588 C14.2271361,4.24770406 17.5044415,4.39375304 20.2923387,5.30461588 C20.2923387,4.58979439 20.2923387,3.61776999 20.2923387,2.3885427 C17.1948925,0.120485769 14.0974462,0.120485769 11,2.3885427 C11,2.87455489 11,4.60074695 11,5.30461588 Z" id="Path-36"></path>
                <path d="M12.3540252,20.6233987 C13.0904096,20.6233987 18.5625,18.0847059 18.5625,17.2577484 C18.5625,16.4307909 13.2156792,13.75 12.3540252,13.75 C11.4923713,13.75 11.712735,15.3389149 11.712735,17.2577484 C11.712735,19.1765819 11.6176408,20.6233987 12.3540252,20.6233987 Z" id="Oval" transform="translate(15.125000, 17.186699) scale(-1, 1) translate(-15.125000, -17.186699) "></path>
                <path d="M12.5221845,22.8903287 C10.5945744,21.7038471 9.46458721,20.1212507 9.13222283,18.1425395 C8.82400633,16.3075909 8.78325154,12.3566918 13.5075978,10.5095931 C18.2319441,8.66249423 21.3555377,11.500371 22.3275117,13.0804772 C23.5354863,15.0442421 23.8015171,17.1692299 23.1256042,19.4554407 L23.1256125,19.4554432 C22.9103139,20.1836702 23.3261245,20.9485489 24.0543515,21.1638476 C24.2085357,21.2094318 24.36952,21.2276206 24.529988,21.2175873 L25.1087518,21.1814001 C26.8609842,21.0718418 28.2545275,19.6693595 28.35288,17.9164625 C28.3605167,17.7801945 28.3643395,17.651805 28.3643395,17.5312935 C28.3643395,10.9263102 23.0099427,5.57191335 16.4049595,5.57191335 C9.79997618,5.57191335 4.59035179,10.9277675 4.44557931,17.5312935 C4.3654778,21.1849745 5.77638875,24.2186816 8.67831216,26.6324145 L8.67830872,26.6324187 C9.53180161,27.3423286 10.7940876,27.2493216 11.5343141,26.4219844 L12.8261557,24.9781175 L12.8261572,24.9781188 C13.3325077,24.4121804 13.2842021,23.5429184 12.7182637,23.0365679 C12.6573783,22.9820931 12.591759,22.9331531 12.5221845,22.8903287 Z" id="Oval-2" transform="translate(16.403346, 16.340595) rotate(45.000000) translate(-16.403346, -16.340595) "></path>
            </g>
        </g>
    </g>
</svg>