<?xml version="1.0" encoding="utf-8"?>
<!-- Generator: Adobe Illustrator 22.0.1, SVG Export Plug-In . SVG Version: 6.00 Build 0)  -->
<svg version="1.1" id="Layer_1" xmlns="http://www.w3.org/2000/svg" xmlns:xlink="http://www.w3.org/1999/xlink" x="0px" y="0px"
	 width="28.9px" height="20.3px" viewBox="0 0 28.9 20.3" style="enable-background:new 0 0 28.9 20.3;" xml:space="preserve">
<style type="text/css">
	.st0{fill:#FFFFFF;}
</style>
<g id="Group" transform="translate(-525.451 -636)">
	<path id="Combined-Shape-Copy-3" class="st0" d="M526.9,636.1L526.9,636.1c0.2,0,11.3,16.1,13,16.1c1.2,0,5.4-5.4,12.8-16.2l0,0
		c0.9,0,1.7,0.8,1.7,1.7c0,0,0,0,0,0v14.9l0,0c0,2-1.7,3.7-3.7,3.7c0,0,0,0,0,0h-21.5c-2,0-3.7-1.7-3.7-3.7v-15l0,0
		C525.5,636.8,526.1,636.1,526.9,636.1z"/>
	<path id="Path-32" class="st0" d="M529,636h21.9c-1.2,1.9-9.3,13.8-10.8,13.8C538.4,649.8,530.4,638.4,529,636z"/>
</g>
</svg>
