<?xml version="1.0" encoding="UTF-8"?>
<svg width="40px" height="40px" viewBox="0 0 45.7 45.7" version="1.1" xmlns="http://www.w3.org/2000/svg" xmlns:xlink="http://www.w3.org/1999/xlink">
    <!-- Generator: Sketch 48.1 (47250) - http://www.bohemiancoding.com/sketch -->
    <title>Group 7</title>
    <desc>Created with Sketch.</desc>
    <defs></defs>
    <g id="create-entry" stroke="none" stroke-width="1" fill="none" fill-rule="evenodd" transform="translate(-32.000000, -195.000000)">
        <g id="Group-7" transform="translate(32.000000, 195.000000)">
            <path d="M5,0 L20.5,0 L27.6941011,0 C29.5700525,-3.44606687e-16 31.2881632,1.05007449 32.1437673,2.71954605 L38.6625347,15.4390921 C40.1300914,18.3026173 40.1300914,21.6973827 38.6625347,24.5609079 L32.1437673,37.280454 C31.2881632,38.9499255 29.5700525,40 27.6941011,40 L20.5,40 L5,40 C2.23857625,40 3.38176876e-16,37.7614237 0,35 L0,5 C-3.38176876e-16,2.23857625 2.23857625,5.07265313e-16 5,0 Z" id="Rectangle-6-Copy-4" fill="#381345"></path>
            <g id="venue" transform="translate(7.000000, 11.000000)" fill="#F8F8FF" fill-rule="nonzero" opacity="0.996433424">
                <g id="Page-1">
                    <g id="Artboard-2-Copy-5">
                        <g id="Group-6">
                            <g id="Group-Copy-2" transform="translate(6.173486, 0.000000)">
                                <path d="M4.83860088,1.96468793 C3.38559195,1.9486384 2.1788043,3.02260357 2.15871234,4.34964427 C2.13835502,5.69364231 3.32408401,6.78247512 4.82485874,6.79787377 C6.2671204,6.81267292 7.48846523,5.73389457 7.50558129,4.43008032 C7.52349344,3.06441456 6.3519236,1.98140547 4.83860088,1.96468793 Z M2.62359758,0.514289131 C3.56704797,0.0465278842 4.59085594,-0.0960384065 5.64998445,0.0616919089 C7.16110735,0.28670647 8.31959342,1.00379363 9.10993406,2.18966928 C9.63947128,2.98411743 9.83658955,3.85414112 9.77696415,4.7769943 C9.69454962,6.0528024 9.24285291,7.22368524 8.54264047,8.32175632 C7.62533539,9.76043091 6.41436924,10.9707891 4.99356401,12.0160062 C4.91301698,12.0752438 4.86297282,12.0687379 4.78662095,12.0129979 C3.68307791,11.2074213 2.71491669,10.2867204 1.89225977,9.24196803 C1.30082371,8.49081072 0.81264267,7.68961212 0.47129215,6.81880578 C0.171487226,6.05402534 0.00175925973,5.26740377 0,4.10764938 C0.0616552872,2.69888702 0.909456086,1.3641838 2.62359758,0.514289131 Z" id="Fill-4"></path>
                            </g>
                            <path d="M6.12334412,7.52692306 L6.12334412,8.57179419 C6.12334412,8.83288316 5.90624937,9.04502814 5.63727235,9.04678345 L5.50655699,9.04763646 C5.27166704,9.04916933 5.07103256,9.21248364 5.02855376,9.43672596 L3.94837093,15.1389246 C3.89949542,15.3969346 4.0753563,15.6445516 4.3411672,15.6919927 C4.37036044,15.697203 4.39998152,15.6998244 4.42966415,15.6998244 L18.3386982,15.6998244 C18.6089652,15.6998244 18.8280599,15.4871596 18.8280599,15.2248244 C18.8280599,15.1950031 18.8251666,15.165248 18.8194185,15.1359534 L17.7010605,9.43640705 C17.6570999,9.21236855 17.4553016,9.05027812 17.2203402,9.05027812 L17.0635983,9.05027812 C16.8245327,9.05027812 16.6204596,8.8826169 16.5809618,8.65375634 L16.400032,7.60540132 C16.3553791,7.34667129 16.5352646,7.10179326 16.8018174,7.05845093 C16.8285351,7.05410654 16.8555784,7.05192306 16.8826685,7.05192306 L19.6460071,7.05192306 C20.117085,7.05192306 20.5213298,7.37766162 20.6080167,7.82710581 L22.4967157,17.6194135 C22.5961837,18.1351241 22.2461122,18.6314586 21.714809,18.7280074 C21.6554193,18.7387998 21.5951276,18.7442308 21.5347061,18.7442308 L1.19821457,18.7442308 C0.657680557,18.7442308 0.219491163,18.3189013 0.219491163,17.7942308 C0.219491163,17.7394117 0.224379542,17.6846956 0.23410157,17.6306949 L1.99706273,7.83838725 C2.07892238,7.38370058 2.48564278,7.05192306 2.96117573,7.05192306 L5.63398242,7.05192306 C5.9042494,7.05192306 6.12334412,7.26458782 6.12334412,7.52692306 Z" id="Path-27"></path>
                        </g>
                    </g>
                </g>
            </g>
        </g>
    </g>
</svg>