<?xml version="1.0" encoding="UTF-8"?>
<svg width="42px" height="42px" viewBox="0 0 46 46" version="1.1" xmlns="http://www.w3.org/2000/svg" xmlns:xlink="http://www.w3.org/1999/xlink">
    <!-- Generator: Sketch 48.1 (47250) - http://www.bohemiancoding.com/sketch -->
    <title>Group 4</title>
    <desc>Created with Sketch.</desc>
    <defs>
        <path d="M5,0 L20.5,0 L27.6941011,0 C29.5700525,-3.44606687e-16 31.2881632,1.05007449 32.1437673,2.71954605 L38.6625347,15.4390921 C40.1300914,18.3026173 40.1300914,21.6973827 38.6625347,24.5609079 L32.1437673,37.280454 C31.2881632,38.9499255 29.5700525,40 27.6941011,40 L20.5,40 L5,40 C2.23857625,40 3.38176876e-16,37.7614237 0,35 L0,5 C-3.38176876e-16,2.23857625 2.23857625,5.07265313e-16 5,0 Z M11.5555556,12 L14.1176471,12 L14.1176471,13.2138623 C14.1176471,13.4964266 14.3497957,13.7254902 14.6361656,13.7254902 L19.3638344,13.7254902 C19.6502043,13.7254902 19.8823529,13.4964266 19.8823529,13.2138623 L19.8823529,12 L22.4444444,12 C23.303554,12 24,12.6871909 24,13.5348837 L24,32.4651163 C24,33.3128091 23.303554,34 22.4444444,34 L11.5555556,34 C10.6964459,34 10,33.3128091 10,32.4651163 L10,13.5348837 C10,12.6871909 10.6964459,12 11.5555556,12 Z M17.7594771,19.9550818 L17.1638628,27.548663 L17.1638823,27.5486644 C17.077818,28.6459123 16.1065742,29.4665657 14.9945486,29.381645 C14.4738653,29.3418827 13.989037,29.1046422 13.6418301,28.7197208 C12.4888889,27.4415442 13.4771242,26.528561 14.1359477,26.3459644 C14.4712333,26.2530381 14.934493,26.266518 15.5257267,26.386404 C15.8062346,26.4432833 16.080362,26.2650185 16.1380075,25.9882383 C16.143087,25.9638493 16.1463554,25.9391268 16.1477867,25.9142682 L16.5676355,18.6221583 C16.5838782,18.3400489 16.8288203,18.1243464 17.1147292,18.1403732 C17.1624487,18.1430481 17.2095642,18.1522205 17.2547374,18.1676297 L20.5397885,19.2882087 C20.7487256,19.3594801 20.8888889,19.5536239 20.8888889,19.7717564 L20.8888889,20.1832679 C20.8888889,20.4658322 20.6567402,20.6948958 20.3703704,20.6948958 C20.3205965,20.6948958 20.271082,20.6878244 20.2233507,20.6738991 L17.7594771,19.9550818 Z M17.1704456,12 L14,5 L15.6706626,5 L19,12 L17.1704456,12 Z M25,9.24150277 L24.238252,11 L21,5 L22.5829266,5 L25,9.24150277 Z" id="path-1"></path>
        <filter x="-8.8%" y="-13.8%" width="127.7%" height="127.5%" filterUnits="objectBoundingBox" id="filter-2">
            <feOffset dx="2" dy="0" in="SourceAlpha" result="shadowOffsetOuter1"></feOffset>
            <feGaussianBlur stdDeviation="1.5" in="shadowOffsetOuter1" result="shadowBlurOuter1"></feGaussianBlur>
            <feColorMatrix values="0 0 0 0 0   0 0 0 0 0   0 0 0 0 0  0 0 0 0.0508661685 0" type="matrix" in="shadowBlurOuter1"></feColorMatrix>
        </filter>
    </defs>
    <g id="create-entry" stroke="none" stroke-width="1" fill="none" fill-rule="evenodd" transform="translate(-31.000000, -84.000000)">
        <g id="Group-4" transform="translate(32.000000, 87.000000)">
            <g id="Rectangle-6-Copy-7">
                <use fill="black" fill-opacity="1" filter="url(#filter-2)" xlink:href="#path-1"></use>
                <use fill="#381345" fill-rule="evenodd" xlink:href="#path-1"></use>
            </g>
        </g>
    </g>
</svg>