<?xml version="1.0" encoding="UTF-8"?>
<svg width="45px" height="57px" viewBox="0 0 45 57" version="1.1" xmlns="http://www.w3.org/2000/svg" xmlns:xlink="http://www.w3.org/1999/xlink">
    <!-- Generator: Sketch 47.1 (45422) - http://www.bohemiancoding.com/sketch -->
    <title>Group Copy</title>
    <desc>Created with Sketch.</desc>
    <defs></defs>
    <g id="Page-1" stroke="none" stroke-width="1" fill="none" fill-rule="evenodd" opacity="0.996433424">
        <g id="Artboard-2-Copy-5" transform="translate(-241.000000, -472.000000)">
            <g id="Group-Copy" transform="translate(241.000000, 472.000000)">
                <path d="M21.8760085,4.39927084 C12.5010829,4.29093478 4.71479616,11.5403169 4.58516128,20.4979865 C4.45381424,29.57012 12.104229,36.9198604 21.7873431,37.0238029 C31.0929262,37.1236987 38.9731371,29.8418273 39.0835713,21.0409386 C39.1991421,11.8225457 31.6400832,4.51211609 21.8760085,4.39927084 M11.8548653,2.43118499 C16.1178961,0.219949998 20.7440269,-0.45399974 25.5297553,0.291634479 C32.3578447,1.35533968 37.5925256,4.74520627 41.163722,10.3511639 C43.5564639,14.106737 44.4471534,18.2195762 44.177733,22.582155 C43.8053384,28.6132478 41.7643228,34.1483303 38.6003757,39.3392117 C34.4554838,46.1402189 28.9836688,51.8619123 22.5636848,56.8029386 C22.1997288,57.0829705 21.9736015,57.0522156 21.6286015,56.7887173 C16.6421836,52.9805371 12.2674955,48.6281329 8.55027648,43.6893034 C5.87784118,40.138378 3.67196915,36.3508938 2.12955866,32.2343547 C0.774874156,28.6190288 0.00794930874,24.9004542 0,19.4179789 C0.278592697,12.758375 4.10942573,6.44886888 11.8548653,2.43118499 Z" id="Fill-4" fill="#F8F8FF"></path>
                <g id="music" transform="translate(8.000000, 11.000000)">
                    <path d="M16.8005279,3.5625238 C15.1028279,4.2176779 13.4087243,4.88401603 11.7062615,5.52464134 C11.3786965,5.6478747 11.258071,5.81521703 11.2596262,6.1977735 C11.2735258,9.63764609 11.2709986,13.0776232 11.2656526,16.5176003 C11.2635142,17.8640737 10.5227509,18.8884052 9.3924089,19.1290186 C8.41399093,19.3373342 7.59303741,19.0190598 6.99496411,18.1736727 C6.39436361,17.3248363 6.33332184,16.372626 6.79599515,15.4332722 C7.26080687,14.4895284 8.03481266,14.0596227 9.02586666,14.0834541 C9.16408545,14.0867988 9.30201265,14.1012231 9.47979195,14.1131388 C9.49009518,13.9428698 9.50642482,13.7973729 9.50661922,13.651876 C9.50895203,10.6527796 9.51361764,7.65357859 9.50418922,4.65448214 C9.50321721,4.34258364 9.58340744,4.18987462 9.86917625,4.08305147 C12.7789637,2.99600574 15.6833079,1.89234076 18.5896933,0.794320052 C18.6967108,0.753869408 18.807422,0.724184698 18.9624564,0.674745022 C18.9712044,0.852121618 18.9833545,0.985075672 18.9834517,1.11813425 C18.9842293,5.32698716 18.9873397,9.53584007 18.9820909,13.744693 C18.9803412,15.133812 18.2257755,16.133685 17.0135909,16.3898724 C15.6882651,16.6701003 14.3828654,15.6232961 14.2223878,14.1516035 C14.0634653,12.6949622 15.1371396,11.3596729 16.4974574,11.3221489 C17.2301531,11.3019758 17.2301531,11.3019758 17.2301531,10.513136 C17.2301531,8.32054386 17.2305419,6.12795172 17.2290839,3.93525506 C17.2289867,3.78902651 17.2143094,3.64290247 17.2035202,3.44179901 C17.0374049,3.49102964 16.9160018,3.51799674 16.8005279,3.5625238 Z" id="Fill-8" fill="#F8F8FF"></path>
                    <path d="M0.346479465,6.87931034 L6.87173008,6.87931034" id="Line" stroke="#F8F8FF" stroke-width="2.5" stroke-linecap="round"></path>
                    <path d="M21.2578398,6.87931034 L25.7387039,6.87931034" id="Line-Copy-6" stroke="#F8F8FF" stroke-width="2.5" stroke-linecap="round"></path>
                    <path d="M0.346479465,10.8103448 L6.87173008,10.8103448" id="Line-Copy" stroke="#F8F8FF" stroke-width="2.5" stroke-linecap="round"></path>
                    <path d="M21.0497007,10.8103448 L25.7387039,10.8103448" id="Line-Copy-7" stroke="#F8F8FF" stroke-width="2.5" stroke-linecap="round"></path>
                    <path d="M0.346479465,14.7413793 L4.70929276,14.7413793" id="Line-Copy-2" stroke="#F8F8FF" stroke-width="2.5" stroke-linecap="round"></path>
                    <path d="M21.0497007,14.7413793 L25.7387039,14.7413793" id="Line-Copy-8" stroke="#F8F8FF" stroke-width="2.5" stroke-linecap="round"></path>
                </g>
            </g>
        </g>
    </g>
</svg>