<?xml version="1.0" encoding="UTF-8"?>
<svg width="40px" height="40px" viewBox="0 0 45.7 45.7" version="1.1" xmlns="http://www.w3.org/2000/svg" xmlns:xlink="http://www.w3.org/1999/xlink">
    <!-- Generator: Sketch 48.1 (47250) - http://www.bohemiancoding.com/sketch -->
    <title>Group 8</title>
    <desc>Created with Sketch.</desc>
    <defs></defs>
    <g id="create-entry" stroke="none" stroke-width="1" fill="none" fill-rule="evenodd" transform="translate(-32.000000, -249.000000)">
        <g id="Group-8" transform="translate(32.000000, 249.000000)">
            <path d="M5,0 L20.5,0 L27.6941011,0 C29.5700525,-3.44606687e-16 31.2881632,1.05007449 32.1437673,2.71954605 L38.6625347,15.4390921 C40.1300914,18.3026173 40.1300914,21.6973827 38.6625347,24.5609079 L32.1437673,37.280454 C31.2881632,38.9499255 29.5700525,40 27.6941011,40 L20.5,40 L5,40 C2.23857625,40 3.38176876e-16,37.7614237 0,35 L0,5 C-3.38176876e-16,2.23857625 2.23857625,5.07265313e-16 5,0 Z" id="Rectangle-6-Copy-4" fill="#381345"></path>
            <g id="hotspot" transform="translate(7.000000, 7.000000)" opacity="0.996433424">
                <g id="Page-1">
                    <g id="Artboard-2-Copy-5">
                        <g id="Group-Copy">
                            <path d="M10.208804,2.08386513 C5.83383869,2.03254805 2.20023821,5.4664659 2.13974193,9.70957255 C2.07844665,14.0068989 5.6486402,17.4883549 10.1674268,17.5375908 C14.5100322,17.5849099 18.187464,14.1356024 18.2389999,9.96676039 C18.292933,5.60015323 14.7653722,2.13731815 10.208804,2.08386513 Z M5.53227047,1.15161394 C7.52168485,0.104186841 9.68054589,-0.215052508 11.9138858,0.138142648 C15.1003275,0.642003006 17.5431786,2.24772929 19.2097369,4.9031829 C20.3263498,6.68213858 20.7420049,8.63032557 20.6162754,10.6968103 C20.4424913,13.5536437 19.4900173,16.1755249 18.0135087,18.6343634 C16.0792258,21.8558932 13.5257121,24.566169 10.5297196,26.9066551 C10.3598734,27.0393018 10.2543474,27.0247337 10.0933474,26.8999187 C7.76635235,25.0960439 5.72483123,23.0343787 3.99012902,20.6949332 C2.74299255,19.0129159 1.7135856,17.2188444 0.993794041,15.2689049 C0.361607939,13.5563821 0.00370967741,11.794952 0,9.19799001 C0.130009925,6.04344079 1.91773201,3.05472736 5.53227047,1.15161394 Z" id="Fill-4" fill="#F8F8FF" fill-rule="nonzero"></path>
                            <g id="music" transform="translate(3.733333, 5.210526)">
                                <path d="M7.84024635,1.68751127 C7.04798635,1.99784743 6.25740467,2.31348128 5.46292203,2.61693537 C5.31005837,2.67530907 5.25376647,2.75457649 5.25449223,2.93578745 C5.26097871,4.56520078 5.25979935,6.19466362 5.25730455,7.82412646 C5.25630663,8.46192965 4.91061709,8.94713931 4.38312415,9.06111407 C3.9265291,9.15978988 3.54341746,9.00902833 3.26431658,8.60858181 C2.98403635,8.20650141 2.95555019,7.75545442 3.1714644,7.31049736 C3.38837654,6.86346082 3.74957924,6.65982128 4.21207111,6.67110984 C4.27657321,6.67269417 4.34093924,6.67952673 4.42390291,6.68517101 C4.42871108,6.60451727 4.43633158,6.53559769 4.4364223,6.46667811 C4.43751095,5.04605349 4.43968823,3.62537933 4.4352883,2.2047547 C4.4348347,2.0570133 4.47225681,1.98467745 4.60561558,1.93407701 C5.96351639,1.41916061 7.31887702,0.896371939 8.67519021,0.376256867 C8.72513171,0.357096035 8.77679693,0.343034857 8.84914632,0.319616063 C8.85322872,0.403636556 8.85889877,0.466614792 8.85894413,0.529642539 C8.85930701,2.52330971 8.86075853,4.51697688 8.85830909,6.51064405 C8.85749256,7.16864779 8.5053619,7.64227184 7.93967575,7.76362377 C7.32119038,7.8963633 6.71200385,7.40050868 6.63711431,6.70339113 C6.56295047,6.01340315 7.06399848,5.38089769 7.69881345,5.36312316 C8.04073811,5.35356748 8.04073811,5.35356748 8.04073811,4.97990653 C8.04073811,3.94131025 8.04091955,2.90271397 8.04023915,1.86406819 C8.04019379,1.79480203 8.03334439,1.72558538 8.02830943,1.63032585 C7.95078895,1.65364562 7.89413417,1.66641951 7.84024635,1.68751127 Z" id="Fill-8" fill="#F8F8FF" fill-rule="nonzero"></path>
                                <path d="M0.161690417,3.25862069 L3.20680737,3.25862069" id="Line" stroke="#F8F8FF" stroke-linecap="round"></path>
                                <path d="M9.92032524,3.25862069 L12.0113952,3.25862069" id="Line-Copy-6" stroke="#F8F8FF" stroke-linecap="round"></path>
                                <path d="M0.161690417,5.12068964 L3.20680737,5.12068964" id="Line-Copy" stroke="#F8F8FF" stroke-linecap="round"></path>
                                <path d="M9.82319366,5.12068964 L12.0113952,5.12068964" id="Line-Copy-7" stroke="#F8F8FF" stroke-linecap="round"></path>
                                <path d="M0.161690417,6.98275862 L2.19766995,6.98275862" id="Line-Copy-2" stroke="#F8F8FF" stroke-linecap="round"></path>
                                <path d="M9.82319366,6.98275862 L12.0113952,6.98275862" id="Line-Copy-8" stroke="#F8F8FF" stroke-linecap="round"></path>
                            </g>
                        </g>
                    </g>
                </g>
            </g>
        </g>
    </g>
</svg>