<?xml version="1.0" encoding="UTF-8"?>
<svg width="39px" height="56px" viewBox="0 0 39 56" version="1.1" xmlns="http://www.w3.org/2000/svg" xmlns:xlink="http://www.w3.org/1999/xlink">
    <!-- Generator: Sketch 47.1 (45422) - http://www.bohemiancoding.com/sketch -->
    <title>Group 5</title>
    <desc>Created with Sketch.</desc>
    <defs></defs>
    <g id="Page-1" stroke="none" stroke-width="1" fill="none" fill-rule="evenodd" opacity="0.996433424">
        <g id="Artboard-2-Copy-5" transform="translate(-372.000000, -219.000000)" fill="#F8F8FF">
            <g id="Group-5" transform="translate(372.000000, 219.000000)">
                <path d="M3,6.6993007 L6.65034965,6.6993007 L6.65034965,6.6993007 C7.2026344,6.6993007 7.65034965,7.14701595 7.65034965,7.6993007 L7.65034965,10.3146853 L7.65034965,10.3146853 C7.65034965,10.8669701 8.0980649,11.3146853 8.65034965,11.3146853 L29.9370629,11.3146853 L29.9370629,11.3146853 C30.4893477,11.3146853 30.9370629,10.8669701 30.9370629,10.3146853 L30.9370629,7.6993007 L30.9370629,7.6993007 C30.9370629,7.14701595 31.3847782,6.6993007 31.9370629,6.6993007 L35.2797203,6.6993007 L35.2797203,6.6993007 C36.9365745,6.6993007 38.2797203,8.04244645 38.2797203,9.6993007 L38.2797203,52.7902098 L38.2797203,52.7902098 C38.2797203,54.447064 36.9365745,55.7902098 35.2797203,55.7902098 L3,55.7902098 L3,55.7902098 C1.34314575,55.7902098 9.20660524e-13,54.447064 9.219292e-13,52.7902098 L9.19247972e-13,9.6993007 L9.16600129e-13,9.6993007 C9.16397223e-13,8.04244645 1.34314575,6.6993007 3,6.6993007 Z" id="Rectangle"></path>
                <path d="M10.1466057,4.36785283 C11.5183127,3.10711385 12.6489315,2.17428051 13.5384618,1.56935281 C15.5433373,0.205931478 17.8161729,-5.77315973e-14 19.1153849,-5.77315973e-14 C20.4567977,-5.77315973e-14 23.3016046,0.0774143276 25.4954612,1.56935281 C26.280025,2.10289769 27.3988907,3.03624827 28.8520583,4.36940457 L28.8520513,4.36941219 C29.2649451,4.74820678 29.5000003,5.28283683 29.5000003,5.84316411 L29.5000003,7.28533745 L29.5000003,7.28533745 C29.5000003,8.38990695 28.6045698,9.28533745 27.5000003,9.28533745 L11.5000003,9.28533745 L11.5000003,9.28533745 C10.3954308,9.28533745 9.50000029,8.38990695 9.50000029,7.28533745 L9.50000029,5.84037092 L9.50000367,5.84037092 C9.50000367,5.28067922 9.73452691,4.74659534 10.1466057,4.36785283 Z" id="Rectangle-2"></path>
            </g>
        </g>
    </g>
</svg>