<?xml version="1.0" encoding="UTF-8"?>
<svg width="40px" height="40px" viewBox="0 0 45.7 45.7" version="1.1" xmlns="http://www.w3.org/2000/svg" xmlns:xlink="http://www.w3.org/1999/xlink">
    <!-- Generator: Sketch 48.1 (47250) - http://www.bohemiancoding.com/sketch -->
    <title>Group 10</title>
    <desc>Created with Sketch.</desc>
    <defs></defs>
    <g id="create-entry" stroke="none" stroke-width="1" fill="none" fill-rule="evenodd" transform="translate(-32.000000, -735.000000)">
        <g id="Group-10" transform="translate(32.000000, 735.000000)">
            <path d="M5,0 L20.5,0 L27.6941011,0 C29.5700525,-3.44606687e-16 31.2881632,1.05007449 32.1437673,2.71954605 L38.6625347,15.4390921 C40.1300914,18.3026173 40.1300914,21.6973827 38.6625347,24.5609079 L32.1437673,37.280454 C31.2881632,38.9499255 29.5700525,40 27.6941011,40 L20.5,40 L5,40 C2.23857625,40 3.38176876e-16,37.7614237 0,35 L0,5 C-3.38176876e-16,2.23857625 2.23857625,5.07265313e-16 5,0 Z" id="Rectangle-6-Copy-4" fill="#381345"></path>
            <g id="note" opacity="0.996" transform="translate(8.000000, 7.000000)" fill="#F8F8FF">
                <g id="Artboard-2-Copy-5-4">
                    <g id="Group-5">
                        <path d="M1.338,3.988 L2.965,3.988 C3.08328655,3.988 3.1967284,4.03498915 3.28036962,4.11863038 C3.36401085,4.2022716 3.411,4.31571345 3.411,4.434 L3.411,5.599 C3.411,5.845319 3.610681,6.045 3.857,6.045 L13.347,6.045 C13.593319,6.045 13.793,5.845319 13.793,5.599 L13.793,4.433 C13.793,4.186681 13.992681,3.987 14.239,3.987 L15.729,3.987 C16.467957,3.987 17.067,4.586043 17.067,5.325 L17.067,24.536 C17.067,25.274957 16.467957,25.874 15.729,25.874 L1.338,25.874 C0.599043005,25.874 9.04961319e-17,25.274957 0,24.536 L0,5.325 C0.00055199301,4.58643356 0.599433353,3.98799979 1.338,3.988 Z" id="Rectangle-2"></path>
                    </g>
                </g>
            </g>
        </g>
    </g>
</svg>