<?xml version="1.0" encoding="UTF-8"?>
<svg width="40px" height="40px" viewBox="0 0 45.7 45.7" version="1.1" xmlns="http://www.w3.org/2000/svg" xmlns:xlink="http://www.w3.org/1999/xlink">
    <!-- Generator: Sketch 48.1 (47250) - http://www.bohemiancoding.com/sketch -->
    <title>Group 6</title>
    <desc>Created with Sketch.</desc>
    <defs></defs>
    <g id="create-entry" stroke="none" stroke-width="1" fill="none" fill-rule="evenodd" transform="translate(-32.000000, -141.000000)">
        <g id="Group-6" transform="translate(32.000000, 141.000000)">
            <path d="M5,0 L20.5,0 L27.6941011,0 C29.5700525,-3.44606687e-16 31.2881632,1.05007449 32.1437673,2.71954605 L38.6625347,15.4390921 C40.1300914,18.3026173 40.1300914,21.6973827 38.6625347,24.5609079 L32.1437673,37.280454 C31.2881632,38.9499255 29.5700525,40 27.6941011,40 L20.5,40 L5,40 C2.23857625,40 3.38176876e-16,37.7614237 0,35 L0,5 C-3.38176876e-16,2.23857625 2.23857625,5.07265313e-16 5,0 Z" id="Rectangle-6-Copy-4" fill="#381345"></path>
            <g id="opener" transform="translate(9.000000, 9.000000)" fill="#F8F8FF" fill-rule="nonzero">
                <path d="M0.34254272,21.313793 C0.139525362,21.2539536 2.48045552e-15,21.0662984 9.51619736e-16,20.8530889 L6.34413157e-16,2.34746907 C6.06715161e-16,2.11949001 0.159090271,1.92296368 0.380663975,1.87722979 L9.428283,0.00975733549 C9.45971771,0.00326905865 9.49172257,0 9.52380952,0 C9.78680224,0 10,0.214901801 10,0.479996607 L10,22.2958316 L10,23.5198784 C10,23.5654721 9.99355543,23.6108332 9.98086057,23.6545944 C9.90704895,23.9090343 9.6425841,24.0549842 9.39016176,23.9805826 L0.34254272,21.313793 Z M7.38095238,13.3310259 C7.77544148,13.3310259 8.0952381,13.0086731 8.0952381,12.611031 C8.0952381,12.2133888 7.77544148,11.891036 7.38095238,11.891036 C6.98646329,11.891036 6.66666667,12.2133888 6.66666667,12.611031 C6.66666667,13.0086731 6.98646329,13.3310259 7.38095238,13.3310259 Z" id="Combined-Shape"></path>
                <path d="M14.7783871,6.16928995 L13.9983373,15.543001 L13.9983362,15.543001 C13.9297842,16.3667774 13.414968,17.0969755 12.6399572,17.4696806 C12.0150261,17.7702118 11.6281898,17.9349872 11.4794482,17.9640067 C11.1105004,18.0359885 10.617351,18.0000047 10,17.8560552 L10,14.2853584 C10.5177169,14.2233565 10.9857807,14.2233565 11.4041914,14.2853584 C11.4845173,14.2972615 11.6779989,14.3362289 11.984636,14.4022606 L11.9846345,14.4022668 C12.2527353,14.46 12.5192542,14.2999737 12.5799212,14.0448378 C12.585905,14.019673 12.589718,13.9940851 12.5913223,13.9683294 L13.1844833,4.44562578 C13.2007486,4.18450124 13.4363742,3.98536591 13.7107679,4.00084458 C13.754987,4.003339 13.7986583,4.01144002 13.8406245,4.02493301 L16.7393402,4.95692801 L18.6616014,5.57497339 C18.8638529,5.64000134 19,5.82053343 19,6.02369276 L19,6.70029057 C19,6.96187349 18.7771694,7.17392831 18.5022941,7.17392831 C18.4555495,7.17392831 18.409038,7.16766156 18.3641305,7.15531273 L16.7054197,6.69919343 L14.7783871,6.16928995 Z" id="Path-28"></path>
                <path d="M10,21 L18.6358764,21 C18.8369763,21 19,21.2238576 19,21.5 C19,21.7761424 18.8369763,22 18.6358764,22 L10,22 L10,21 Z" id="Path-23-Copy"></path>
            </g>
        </g>
    </g>
</svg>