<svg id="Layer_1" data-name="Layer 1" xmlns="http://www.w3.org/2000/svg" width="1503.9" height="1504" viewBox="0 0 1503.9 1504">
  <defs>
    <style>
      .cls-1 {
        fill: #391544;
      }
    </style>
  </defs>
  <title>spotify_purple</title>
  <path class="cls-1" d="M1775.9,1025h0c0-207.7-84.2-395.7-220.2-531.7S1231.7,273,1024,273,628.3,357.2,492.3,493.3,272,817.3,272,1025s84.2,395.7,220.3,531.7S816.3,1777,1024,1777s395.7-84.2,531.7-220.3,220.3-324,220.2-531.7ZM1374,1356.7a60.45,60.45,0,0,1-34,26.9,61.32,61.32,0,0,1-43.3-2.4,113,113,0,0,1-11.9-6.5l-1.9-1.1h0a655.45,655.45,0,0,0-118.5-55.1,704.79,704.79,0,0,0-127.1-31.3c-27.1-4.2-54.1-6.9-80.9-8.4q-40.8-2.25-81.4-.6c-35.3,1.4-70.3,4.5-105.3,9.2s-69.8,11-104.2,18.6c-3.8.8-7.7,1.6-11.7,2.3a95.2,95.2,0,0,1-13.1,1.2,59.67,59.67,0,0,1-59.5-49.1,62.77,62.77,0,0,1,6.1-41,59.85,59.85,0,0,1,30.8-27.5,61.81,61.81,0,0,1,8.3-2.7h.1c2.8-.8,5.2-1.3,7.4-1.8,28.9-6.5,58-12.2,87.3-16.9q44.4-7.2,88.4-11c21.7-1.8,45-3,68.2-4.1,9.7-.5,19.3-.9,30.3-1.6h1a1031.29,1031.29,0,0,1,145.7,11.4h0a844.9,844.9,0,0,1,142.5,34.5,774.15,774.15,0,0,1,148,68h0l1.1.7a136.36,136.36,0,0,1,12.1,7.9,61,61,0,0,1,23.2,37.2A61.93,61.93,0,0,1,1374,1356.7Zm89.9-200a71.73,71.73,0,0,1-44.5,32.7c-17.8,4.4-37.4,2-55.1-8l-12.5-7.1c-11.5-6.6-22.9-13.1-34.6-19.1a779.25,779.25,0,0,0-112.3-46.4,947,947,0,0,0-118.2-30c-31.1-5.9-62.2-10.3-93.8-13.2s-64-4.4-97.2-4.6a961.79,961.79,0,0,0-129.3,9.1,835.86,835.86,0,0,0-120.5,26,80.47,80.47,0,0,1-25.2,3.6,72.49,72.49,0,0,1-71.5-74.4,74,74,0,0,1,14.4-41.9,69.89,69.89,0,0,1,35.8-25.2c12.1-3.7,24.1-7.1,36.1-10.2s24.5-6.2,37.1-9q46-10.2,91.5-15.7t92.4-7.2a1146.6,1146.6,0,0,1,197.3,9.3A1120.59,1120.59,0,0,1,1246.6,969h0a934.75,934.75,0,0,1,94.4,35.9,837.44,837.44,0,0,1,89.8,46.4c2.1,1.3,5.2,3.1,8.2,5l.4.3a71.48,71.48,0,0,1,32.7,44.5A73.78,73.78,0,0,1,1463.9,1156.7ZM1566.8,923a83.84,83.84,0,0,1-73.4,42.5,88,88,0,0,1-42.4-11.4c-15.8-8.9-31.6-17.4-47.4-25.1s-32-15-48.8-21.8A931.11,931.11,0,0,0,1254,873.5c-33.8-9.2-68.6-16.8-104.1-23.1q-36.75-6.45-73.3-10.8-37.5-4.35-74.6-6.6c-26.2-1.6-52-2.4-77.5-2.6s-51.4.4-77.5,1.8c-29.4,1.5-58.8,3.9-88.4,7.5-29.2,3.6-58.2,8.3-87,14.5-18.8,4.1-37.3,9-55.9,14l-7.8,2.1a94,94,0,0,1-23.6,3.3,83.38,83.38,0,0,1-24.1-3.3,84.59,84.59,0,0,1-45.9-129,82.17,82.17,0,0,1,41.5-31.2c10.4-3.4,21.2-6.6,32.3-9.5,10.8-2.9,21.5-5.5,32.3-8,26.9-6.2,53.8-11.2,80.6-15.3,26.4-4,53.5-7.1,81.3-9.6q43.35-3.9,86.7-5.3t86.7-.1c71.3,2,141.8,8.3,211.4,19.8A1274,1274,0,0,1,1373.6,734c28,9.7,55.3,20.4,81.6,32.3a850.51,850.51,0,0,1,78.3,40.3h0a91.67,91.67,0,0,1,26.7,23,81.57,81.57,0,0,1,15.1,32.6,93.1,93.1,0,0,1,1.8,11.9c.2,1.8.4,3.6.5,4.3l.1,2.1A84.43,84.43,0,0,1,1566.8,923Z" transform="translate(-272 -273)"/>
</svg>
