<?xml version="1.0" encoding="utf-8"?>
<!-- Generator: Adobe Illustrator 22.0.1, SVG Export Plug-In . SVG Version: 6.00 Build 0)  -->
<svg version="1.1" id="Layer_1" xmlns="http://www.w3.org/2000/svg" xmlns:xlink="http://www.w3.org/1999/xlink" 
	  viewBox="0 0 2048 2048" style="enable-background:new 0 0 2048 2048;" xml:space="preserve">
<style type="text/css">
	.st0{fill:#9CD258;}
</style>
<path class="st0" d="M1775.9,1025L1775.9,1025c0-207.7-84.2-395.7-220.2-531.7C1419.7,357.2,1231.7,273,1024,273
	s-395.7,84.2-531.7,220.3C356.2,629.3,272,817.3,272,1025c0,207.7,84.2,395.7,220.3,531.7C628.3,1692.8,816.3,1777,1024,1777
	c207.7,0,395.7-84.2,531.7-220.3C1691.8,1420.7,1776,1232.7,1775.9,1025L1775.9,1025z M1374,1356.7c-7.9,13.3-20.2,22.6-34,26.9
	c-13.8,4.3-29.1,3.9-43.3-2.4c-4.2-1.9-8.1-4.2-11.9-6.5l-1.9-1.1l0,0c-38.1-22.6-77.6-40.8-118.5-55.1
	c-40.8-14.3-83.2-24.6-127.1-31.3c-27.1-4.2-54.1-6.9-80.9-8.4c-27.2-1.5-54.3-1.7-81.4-0.6c-35.3,1.4-70.3,4.5-105.3,9.2
	c-35.1,4.7-69.8,11-104.2,18.6c-3.8,0.8-7.7,1.6-11.7,2.3c-4.3,0.7-8.7,1.1-13.1,1.2c-14.6,0.2-28.2-4.9-38.7-13.6
	c-10.6-8.7-18.2-21.2-20.8-35.5c-2.7-14.6-0.3-29,6.1-41c6.5-12.2,17.1-22,30.8-27.5c2.7-1.1,5.5-2,8.3-2.7h0.1
	c2.8-0.8,5.2-1.3,7.4-1.8c28.9-6.5,58-12.2,87.3-16.9c29.6-4.8,59.1-8.5,88.4-11c21.7-1.8,45-3,68.2-4.1c9.7-0.5,19.3-0.9,30.3-1.6
	h1c49.4,0.5,98,4.1,145.7,11.4h0c48,7.4,95.5,18.6,142.5,34.5c25.8,8.7,51.1,18.7,75.8,30.1c24.7,11.3,48.8,24,72.2,37.9l0,0
	l1.1,0.7c3.8,2.3,7.7,4.6,12.1,7.9c12.5,9.5,20.5,22.9,23.2,37.2C1384.4,1327.9,1382,1343.3,1374,1356.7z M1463.9,1156.7
	c-10.4,17.1-26.5,28.3-44.5,32.7c-17.8,4.4-37.4,2-55.1-8l-12.5-7.1c-11.5-6.6-22.9-13.1-34.6-19.1c-36.5-18.6-74-33.9-112.3-46.4
	c-38.6-12.6-78-22.4-118.2-30c-31.1-5.9-62.2-10.3-93.8-13.2c-31.7-2.9-64-4.4-97.2-4.6c-42.6,0.2-85.9,3-129.3,9.1
	c-40.3,5.7-80.7,14.2-120.5,26c-8.3,2.5-16.7,3.8-25.2,3.6c-8.9-0.1-17.6-1.8-26.2-5.2c-14-5.7-25.6-15.5-33.5-27.6
	c-7.9-12.1-12.3-26.7-11.8-41.6c0.5-15.5,5.6-30.1,14.4-41.9c8.7-11.7,20.9-20.6,35.8-25.2c12.1-3.7,24.1-7.1,36.1-10.2
	c12.1-3.2,24.5-6.2,37.1-9c30.7-6.8,61.2-12,91.5-15.7c30.3-3.7,61.1-6.1,92.4-7.2c66.6-2.5,132.3,0.5,197.3,9.3
	c65,8.8,129.3,23.2,192.8,43.6h0c32.1,10.3,63.6,22.2,94.4,35.9c30.9,13.7,60.8,29.1,89.8,46.4c2.1,1.3,5.2,3.1,8.2,5l0.4,0.3
	c17.9,11,28.5,27.2,32.7,44.5C1476.9,1120.3,1473.6,1140.8,1463.9,1156.7z M1566.8,923c-7.4,13.2-18.2,23.8-30.9,31.2
	c-12.6,7.3-27.3,11.4-42.5,11.3c-14.1-0.1-28.6-3.7-42.4-11.4c-15.8-8.9-31.6-17.4-47.4-25.1c-15.8-7.8-32-15-48.8-21.8
	c-33.2-13.3-66.8-24.4-100.8-33.7c-33.8-9.2-68.6-16.8-104.1-23.1c-24.5-4.3-48.9-7.9-73.3-10.8c-25-2.9-49.9-5.1-74.6-6.6
	c-26.2-1.6-52-2.4-77.5-2.6c-25.6-0.1-51.4,0.4-77.5,1.8c-29.4,1.5-58.8,3.9-88.4,7.5c-29.2,3.6-58.2,8.3-87,14.5
	c-18.8,4.1-37.3,9-55.9,14l-7.8,2.1c-7.7,2.1-15.6,3.2-23.6,3.3c-8,0.1-16.1-1-24.1-3.3c-17.7-5.2-32.6-15.7-43.3-29.5
	c-10.6-13.8-16.9-30.9-17.4-49.4c-0.5-18.2,4.9-35.7,14.8-50.1c9.9-14.2,24.1-25.4,41.5-31.2c10.4-3.4,21.2-6.6,32.3-9.5
	c10.8-2.9,21.5-5.5,32.3-8c26.9-6.2,53.8-11.2,80.6-15.3c26.4-4,53.5-7.1,81.3-9.6c28.9-2.6,57.8-4.4,86.7-5.3
	c28.9-0.9,57.8-0.9,86.7-0.1c71.3,2,141.8,8.3,211.4,19.8c69.7,11.6,138.6,28.5,206.5,51.9c28,9.7,55.3,20.4,81.6,32.3
	c26.8,12.1,52.9,25.5,78.3,40.3h0c10.6,6.2,19.6,13.8,26.7,23c7.2,9.3,12.3,20.1,15.1,32.6c1,4.3,1.4,8.1,1.8,11.9
	c0.2,1.8,0.4,3.6,0.5,4.3l0.1,2.1C1577.8,896.5,1573.7,910.8,1566.8,923z"/>
</svg>
