<?xml version="1.0" encoding="utf-8"?>
<!-- Generator: Adobe Illustrator 22.0.1, SVG Export Plug-In . SVG Version: 6.00 Build 0)  -->
<svg version="1.1" id="Layer_1" xmlns="http://www.w3.org/2000/svg" xmlns:xlink="http://www.w3.org/1999/xlink" x="0px" y="0px"
	 width="46px" height="50px" viewBox="0 0 46 50" style="enable-background:new 0 0 46 50;" xml:space="preserve">
<style type="text/css">
	.st0{fill:#371443;}
</style>
<title>Group</title>
<desc>Created with Sketch.</desc>
<g id="Page-1">
	<g id="Artboard-2-Copy-5" transform="translate(-509.000000, -624.000000)">
		<g id="Group" transform="translate(509.000000, 624.000000)">
			<path id="Path-26-Copy-3" class="st0" d="M19.4,17.7l4.6,1.1l0,0c0.5,0.1,0.9,0.7,0.7,1.2c0,0.2-0.2,0.4-0.3,0.5L9.5,33.7l0,0
				c-0.4,0.4-1,0.3-1.4-0.1C8,33.6,8,33.5,7.9,33.3l-6.9-19l0,0c-0.2-0.5,0.1-1.1,0.6-1.3C1.8,13,2,13,2.2,13.1l4.7,1.1
				c5-12,14-16.4,27-13.1C42.3,4.5,46.3,11.4,46,21.6l0,0c0,0.2-0.1,0.3-0.3,0.3c-0.1,0-0.2-0.1-0.3-0.2c-2.1-8.4-6.1-12.9-12-13.5
				C27.1,7.5,22.4,10.6,19.4,17.7z"/>
			<path id="Path-26-Copy-4" class="st0" d="M26.6,32.3L22,31.3l0,0c-0.5-0.1-0.9-0.7-0.7-1.2c0-0.2,0.2-0.4,0.3-0.5l14.9-13.3l0,0
				c0.4-0.4,1-0.3,1.4,0.1c0.1,0.1,0.2,0.2,0.2,0.3l6.9,19l0,0c0.2,0.5-0.1,1.1-0.6,1.3c-0.2,0.1-0.4,0.1-0.6,0l-4.7-1.1
				c-5,12-14,16.4-27,13.1C3.7,45.5-0.3,38.6,0,28.4l0,0c0-0.2,0.1-0.3,0.3-0.3c0.1,0,0.2,0.1,0.3,0.2c2.1,8.4,6.1,12.9,12,13.5
				C18.9,42.5,23.6,39.4,26.6,32.3z"/>
		</g>
	</g>
</g>
</svg>
